<?xml version="1.0" encoding="UTF-8" standalone="no"?>
<!DOCTYPE svg PUBLIC "-//W3C//DTD SVG 1.1//EN" "http://www.w3.org/Graphics/SVG/1.1/DTD/svg11.dtd">
<svg width="100%" height="100%" viewBox="0 0 1771 429" version="1.1" xmlns="http://www.w3.org/2000/svg" xmlns:xlink="http://www.w3.org/1999/xlink" xml:space="preserve" xmlns:serif="http://www.serif.com/" style="fill-rule:evenodd;clip-rule:evenodd;stroke-linejoin:round;stroke-miterlimit:2;">
    <g transform="matrix(0.981131,0,0,0.981131,-41.1501,-422.57)">
        <clipPath id="_clip1">
            <path d="M626.92,734.198L673.43,734.198L673.43,641.179L745.858,734.198L787.039,734.198L787.039,564.632L740.529,564.632L740.529,654.26L670.765,564.632L626.92,564.632L626.92,734.198ZM902.343,737.589C954.667,737.589 993.909,698.105 993.909,649.415C993.909,600.241 955.151,561.241 902.828,561.241C850.505,561.241 811.262,600.725 811.262,649.415C811.262,698.589 850.02,737.589 902.343,737.589ZM902.828,695.198C877.151,695.198 859.467,673.881 859.467,649.415C859.467,624.465 876.666,603.632 902.343,603.632C928.263,603.632 945.946,624.949 945.946,649.415C945.946,674.365 928.747,695.198 902.828,695.198ZM1018.38,734.198L1065.37,734.198L1065.37,685.751L1088.62,685.751C1130.77,685.751 1161.54,664.676 1161.54,624.707C1161.54,586.676 1133.92,564.632 1091.05,564.632L1018.38,564.632L1018.38,734.198ZM1065.37,648.931L1065.37,604.117L1087.41,604.117C1104.37,604.117 1114.54,611.868 1114.54,626.403C1114.54,640.21 1104.37,648.931 1087.65,648.931L1065.37,648.931ZM1150.88,734.198L1200.3,734.198L1212.41,703.918L1277.81,703.918L1290.16,734.198L1340.55,734.198L1268.36,563.421L1223.07,563.421L1150.88,734.198ZM1226.21,667.341L1245.35,619.135L1264.25,667.341L1226.21,667.341ZM1357.02,734.198L1403.53,734.198L1403.53,641.179L1475.96,734.198L1517.14,734.198L1517.14,564.632L1470.63,564.632L1470.63,654.26L1400.87,564.632L1357.02,564.632L1357.02,734.198ZM1548.15,734.198L1595.38,734.198L1595.38,564.632L1548.15,564.632L1548.15,734.198ZM1708.02,737.589C1745.57,737.589 1767.13,721.359 1783.12,699.316L1747.75,674.123C1737.58,686.477 1727.16,694.713 1709.48,694.713C1685.74,694.713 1669.02,674.85 1669.02,649.415C1669.02,624.222 1685.74,604.117 1709.48,604.117C1725.71,604.117 1737.09,611.626 1746.78,623.738L1781.18,597.092C1766.16,576.26 1744.6,561.241 1709.96,561.241C1658.61,561.241 1620.58,599.999 1620.58,649.415C1620.58,700.527 1659.58,737.589 1708.02,737.589Z" clip-rule="nonzero"/>
        </clipPath>
        <g clip-path="url(#_clip1)">
            <g transform="matrix(242.237,0,0,242.237,611.901,734.198)">
                <path d="M0.062,0L0.254,0L0.254,-0.384L0.553,0L0.723,0L0.723,-0.7L0.531,-0.7L0.531,-0.33L0.243,-0.7L0.062,-0.7L0.062,0Z" style="fill:rgb(90,90,90);fill-rule:nonzero;"/>
            </g>
            <g transform="matrix(242.237,0,0,242.237,802.057,734.198)">
                <path d="M0.414,0.014C0.63,0.014 0.792,-0.149 0.792,-0.35C0.792,-0.553 0.632,-0.714 0.416,-0.714C0.2,-0.714 0.038,-0.551 0.038,-0.35C0.038,-0.147 0.198,0.014 0.414,0.014ZM0.416,-0.161C0.31,-0.161 0.237,-0.249 0.237,-0.35C0.237,-0.453 0.308,-0.539 0.414,-0.539C0.521,-0.539 0.594,-0.451 0.594,-0.35C0.594,-0.247 0.523,-0.161 0.416,-0.161Z" style="fill:rgb(90,90,90);fill-rule:nonzero;"/>
            </g>
            <path d="M1018.38,734.198L1065.37,734.198L1065.37,685.751L1088.62,685.751C1130.77,685.751 1161.54,664.676 1161.54,624.707C1161.54,586.676 1133.92,564.632 1091.05,564.632L1018.38,564.632L1018.38,734.198ZM1065.37,648.931L1065.37,604.117L1087.41,604.117C1104.37,604.117 1114.54,611.868 1114.54,626.403C1114.54,640.21 1104.37,648.931 1087.65,648.931L1065.37,648.931Z" style="fill:url(#_Linear2);fill-rule:nonzero;"/>
            <path d="M1150.88,734.198L1200.3,734.198L1212.41,703.918L1277.81,703.918L1290.16,734.198L1340.55,734.198L1268.36,563.421L1223.07,563.421L1150.88,734.198ZM1226.21,667.341L1245.35,619.135L1264.25,667.341L1226.21,667.341Z" style="fill:url(#_Linear3);fill-rule:nonzero;"/>
            <path d="M1357.02,734.198L1403.53,734.198L1403.53,641.179L1475.96,734.198L1517.14,734.198L1517.14,564.632L1470.63,564.632L1470.63,654.26L1400.87,564.632L1357.02,564.632L1357.02,734.198Z" style="fill:url(#_Linear4);fill-rule:nonzero;"/>
            <rect x="1548.15" y="564.632" width="47.236" height="169.566" style="fill:url(#_Linear5);fill-rule:nonzero;"/>
            <path d="M1708.02,737.589C1745.57,737.589 1767.13,721.359 1783.12,699.316L1747.75,674.123C1737.58,686.477 1727.16,694.713 1709.48,694.713C1685.74,694.713 1669.02,674.85 1669.02,649.415C1669.02,624.222 1685.74,604.117 1709.48,604.117C1725.71,604.117 1737.09,611.626 1746.78,623.738L1781.18,597.092C1766.16,576.26 1744.6,561.241 1709.96,561.241C1658.61,561.241 1620.58,599.999 1620.58,649.415C1620.58,700.527 1659.58,737.589 1708.02,737.589Z" style="fill:url(#_Linear6);fill-rule:nonzero;"/>
            <g transform="matrix(1.7692,-0.0640706,0.0524771,1.44906,-919.454,-737.012)">
                <rect x="830.872" y="1036.26" width="719.585" height="87.805" style="fill-opacity:0.21;"/>
            </g>
        </g>
    </g>
    <g transform="matrix(1.5219,0,0,1.5219,-822.83,-969.424)">
        <g transform="matrix(0.856944,0,0,0.856944,109.867,-60.3094)">
            <path d="M841.369,898.19C841.369,862.739 812.63,834 777.178,834L777.176,834C741.724,834 712.985,862.739 712.985,898.19L712.985,898.193C712.985,933.644 741.724,962.383 777.176,962.383L777.178,962.383C812.63,962.383 841.369,933.644 841.369,898.193L841.369,898.19Z" style="fill:rgb(90,90,90);"/>
        </g>
        <g transform="matrix(1,0,0,1,-1.25056e-12,0.588453)">
            <path d="M636.526,790.699C651.115,790.699 665.107,796.494 675.423,806.81C685.739,817.126 691.534,831.118 691.534,845.707L691.534,845.708C691.534,860.297 685.739,874.289 675.423,884.605C665.107,894.921 651.115,900.716 636.526,900.716L636.525,900.716C621.936,900.716 607.944,894.921 597.628,884.605C587.312,874.289 581.517,860.297 581.517,845.708L581.517,845.707C581.517,831.118 587.312,817.126 597.628,806.81C607.944,796.494 621.936,790.699 636.525,790.699L636.526,790.699ZM775.864,790.699C790.453,790.699 804.444,796.494 814.761,806.81C825.077,817.126 830.872,831.118 830.872,845.707L830.872,845.708C830.872,860.297 825.077,874.289 814.761,884.605C804.444,894.921 790.453,900.716 775.864,900.716L775.863,900.716C761.274,900.716 747.282,894.921 736.966,884.605C726.65,874.289 720.855,860.297 720.855,845.708L720.855,845.707C720.855,831.118 726.65,817.126 736.966,806.81C747.282,796.494 761.274,790.699 775.863,790.699L775.864,790.699ZM636.526,654.381C651.115,654.381 665.107,660.177 675.423,670.493C685.739,680.809 691.534,694.8 691.534,709.389L691.534,709.391C691.534,723.98 685.739,737.971 675.423,748.287C665.107,758.603 651.115,764.399 636.526,764.399L636.525,764.399C621.936,764.399 607.944,758.603 597.628,748.287C587.312,737.971 581.517,723.98 581.517,709.391L581.517,709.389C581.517,694.8 587.312,680.809 597.628,670.493C607.944,660.177 621.936,654.381 636.525,654.381L636.526,654.381Z" style="fill:url(#_Linear7);"/>
            <clipPath id="_clip8">
                <path d="M636.526,790.699C651.115,790.699 665.107,796.494 675.423,806.81C685.739,817.126 691.534,831.118 691.534,845.707L691.534,845.708C691.534,860.297 685.739,874.289 675.423,884.605C665.107,894.921 651.115,900.716 636.526,900.716L636.525,900.716C621.936,900.716 607.944,894.921 597.628,884.605C587.312,874.289 581.517,860.297 581.517,845.708L581.517,845.707C581.517,831.118 587.312,817.126 597.628,806.81C607.944,796.494 621.936,790.699 636.525,790.699L636.526,790.699ZM775.864,790.699C790.453,790.699 804.444,796.494 814.761,806.81C825.077,817.126 830.872,831.118 830.872,845.707L830.872,845.708C830.872,860.297 825.077,874.289 814.761,884.605C804.444,894.921 790.453,900.716 775.864,900.716L775.863,900.716C761.274,900.716 747.282,894.921 736.966,884.605C726.65,874.289 720.855,860.297 720.855,845.708L720.855,845.707C720.855,831.118 726.65,817.126 736.966,806.81C747.282,796.494 761.274,790.699 775.863,790.699L775.864,790.699ZM636.526,654.381C651.115,654.381 665.107,660.177 675.423,670.493C685.739,680.809 691.534,694.8 691.534,709.389L691.534,709.391C691.534,723.98 685.739,737.971 675.423,748.287C665.107,758.603 651.115,764.399 636.526,764.399L636.525,764.399C621.936,764.399 607.944,758.603 597.628,748.287C587.312,737.971 581.517,723.98 581.517,709.391L581.517,709.389C581.517,694.8 587.312,680.809 597.628,670.493C607.944,660.177 621.936,654.381 636.525,654.381L636.526,654.381Z"/>
            </clipPath>
            <g clip-path="url(#_clip8)">
                <g transform="matrix(0.781904,0.831386,-0.595027,0.559612,450.148,-713.44)">
                    <rect x="830.872" y="1036.26" width="719.585" height="87.805" style="fill-opacity:0.21;"/>
                </g>
            </g>
        </g>
    </g>
    <defs>
        <linearGradient id="_Linear2" x1="0" y1="0" x2="1" y2="0" gradientUnits="userSpaceOnUse" gradientTransform="matrix(766.572,11.0358,-11.0358,766.572,1012.5,644.044)"><stop offset="0" style="stop-color:rgb(128,187,205);stop-opacity:1"/><stop offset="1" style="stop-color:rgb(76,83,127);stop-opacity:1"/></linearGradient>
        <linearGradient id="_Linear3" x1="0" y1="0" x2="1" y2="0" gradientUnits="userSpaceOnUse" gradientTransform="matrix(766.572,11.0358,-11.0358,766.572,1012.5,644.044)"><stop offset="0" style="stop-color:rgb(128,187,205);stop-opacity:1"/><stop offset="1" style="stop-color:rgb(76,83,127);stop-opacity:1"/></linearGradient>
        <linearGradient id="_Linear4" x1="0" y1="0" x2="1" y2="0" gradientUnits="userSpaceOnUse" gradientTransform="matrix(766.572,11.0358,-11.0358,766.572,1012.5,644.044)"><stop offset="0" style="stop-color:rgb(128,187,205);stop-opacity:1"/><stop offset="1" style="stop-color:rgb(76,83,127);stop-opacity:1"/></linearGradient>
        <linearGradient id="_Linear5" x1="0" y1="0" x2="1" y2="0" gradientUnits="userSpaceOnUse" gradientTransform="matrix(766.572,11.0358,-11.0358,766.572,1012.5,644.044)"><stop offset="0" style="stop-color:rgb(128,187,205);stop-opacity:1"/><stop offset="1" style="stop-color:rgb(76,83,127);stop-opacity:1"/></linearGradient>
        <linearGradient id="_Linear6" x1="0" y1="0" x2="1" y2="0" gradientUnits="userSpaceOnUse" gradientTransform="matrix(766.572,11.0358,-11.0358,766.572,1012.5,644.044)"><stop offset="0" style="stop-color:rgb(128,187,205);stop-opacity:1"/><stop offset="1" style="stop-color:rgb(76,83,127);stop-opacity:1"/></linearGradient>
        <linearGradient id="_Linear7" x1="0" y1="0" x2="1" y2="0" gradientUnits="userSpaceOnUse" gradientTransform="matrix(55.0589,199.782,-199.782,55.0589,601.24,667.189)"><stop offset="0" style="stop-color:rgb(139,187,206);stop-opacity:1"/><stop offset="1" style="stop-color:rgb(72,76,121);stop-opacity:1"/></linearGradient>
    </defs>
</svg>
